<?xml version="1.0" encoding="UTF-8"?>
<svg width="21px" height="24px" viewBox="0 0 21 24" version="1.1" xmlns="http://www.w3.org/2000/svg" xmlns:xlink="http://www.w3.org/1999/xlink">
    <!-- Generator: Sketch 61 (89581) - https://sketch.com -->
    <title>Shape</title>
    <desc>Created with Sketch.</desc>
    <g id="Telegram" stroke="none" stroke-width="1" fill="none" fill-rule="evenodd">
        <g id="Telegram-Chat" transform="translate(-11.000000, -743.000000)" fill="#51A6F8" fill-rule="nonzero">
            <g id="Send-Message" transform="translate(0.000000, 733.000000)">
                <g id="Attach" transform="translate(7.000000, 7.000000)">
                    <path d="M19.1142659,22.0792509 L11.2896255,22.0792509 C7.53981886,22.0792509 4.5,19.0394321 4.5,15.2896255 C4.5,11.5398189 7.53981886,8.5 11.2896255,8.5 L21.8222081,8.5 C24.3239826,8.5 26.3520715,10.528089 26.3520715,13.0298635 C26.3520715,15.531638 24.3239826,17.5597269 21.8222081,17.5597269 L10.9578065,17.5597269 C9.78238299,17.5597269 8.82951398,16.6068579 8.82951398,15.4314344 C8.82951398,14.2560109 9.78238299,13.3031419 10.9578065,13.3031419 L19.1142659,13.3031419 C19.5284795,13.3031419 19.8642659,12.9673555 19.8642659,12.5531419 C19.8642659,12.1389283 19.5284795,11.8031419 19.1142659,11.8031419 L10.9578065,11.8031419 C8.95395587,11.8031419 7.32951398,13.4275838 7.32951398,15.4314344 C7.32951398,17.435285 8.95395587,19.0597269 10.9578065,19.0597269 L21.8222081,19.0597269 C25.1524097,19.0597269 27.8520715,16.3600651 27.8520715,13.0298635 C27.8520715,9.69966183 25.1524097,7 21.8222081,7 L11.2896255,7 C6.71139173,7 3,10.7113917 3,15.2896255 C3,19.8678592 6.71139173,23.5792509 11.2896255,23.5792509 L19.1142659,23.5792509 C19.5284795,23.5792509 19.8642659,23.2434645 19.8642659,22.8292509 C19.8642659,22.4150373 19.5284795,22.0792509 19.1142659,22.0792509 Z" id="Shape" transform="translate(15.426036, 15.289625) rotate(-45.000000) translate(-15.426036, -15.289625) "></path>
                </g>
            </g>
        </g>
    </g>
</svg>