<?xml version="1.0" encoding="UTF-8"?>
<svg width="24px" height="24px" viewBox="0 0 24 24" version="1.1" xmlns="http://www.w3.org/2000/svg" xmlns:xlink="http://www.w3.org/1999/xlink">
    <!-- Generator: Sketch 61 (89581) - https://sketch.com -->
    <title>Icon</title>
    <desc>Created with Sketch.</desc>
    <g id="Telegram" stroke="none" stroke-width="1" fill="none" fill-rule="evenodd" fill-opacity="0.65">
        <g id="Telegram-Chats" transform="translate(-129.000000, -735.000000)" fill="#B4C2D3">
            <g id="Tab-Bar" transform="translate(0.000000, 729.000000)">
                <g id="Tab-2" transform="translate(94.000000, 0.000000)">
                    <g id="Icon" transform="translate(31.000000, 5.000000)">
                        <path d="M0,11.4397144 C0.111749969,9.98490375 1.38169826,8.89613795 2.8365089,9.00788792 C2.95717273,9.01715661 3.07705712,9.03470523 3.19531508,9.06040982 L6.81481074,9.84714463 C8.15185848,10.1333465 9.13903227,11.250322 9.24201586,12.5934988 L9.30974909,13.8147301 C9.36706163,14.8480764 10.2048104,15.6735723 11.2544366,15.7309749 C12.336291,15.9093789 13.4181455,15.9985809 14.5,15.9985809 L15.0409272,15.9911474 C15.9424726,15.9663691 16.844018,15.8796449 17.7455634,15.7309749 C18.7427083,15.6764425 19.5486338,14.9287058 19.6758718,13.9681032 L19.6902509,13.8147301 L19.7579841,12.5934988 C19.8562867,11.3113755 20.7602253,10.2353571 22.0050834,9.8912648 L22.1851893,9.84714463 L25.8046849,9.06040982 C25.9229429,9.03470523 26.0428273,9.01715661 26.1634911,9.00788792 C27.6183017,8.89613795 28.88825,9.98490375 29,11.4397144 C29,15.0698082 25.7252804,19.7538008 14.9300435,19.8748506 L14.5,19.8772462 C3.36146339,19.8772462 0,15.1175726 0,11.4397144 Z" transform="translate(14.500000, 14.438623) rotate(45.000000) translate(-14.500000, -14.438623) "></path>
                    </g>
                </g>
            </g>
        </g>
    </g>
</svg>