<?xml version="1.0" encoding="UTF-8"?>
<svg width="29px" height="26px" viewBox="0 0 29 26" version="1.1" xmlns="http://www.w3.org/2000/svg" xmlns:xlink="http://www.w3.org/1999/xlink">
    <!-- Generator: Sketch 61 (89581) - https://sketch.com -->
    <title>Group</title>
    <desc>Created with Sketch.</desc>
    <g id="Telegram" stroke="none" stroke-width="1" fill="none" fill-rule="evenodd">
        <g id="Telegram-Chats" transform="translate(-220.000000, -735.000000)" fill="#51A6F8">
            <g id="Tab-Bar" transform="translate(0.000000, 729.000000)">
                <g id="Tab-3" transform="translate(187.000000, 0.000000)">
                    <g id="Icon" transform="translate(33.000000, 6.000000)">
                        <g id="Group">
                            <path d="M29,13 C29,15.677444 27.9885478,17.9136229 25.9656043,19.7084926 C25.7455872,19.9037128 25.5523916,20.1272098 25.3910556,20.3731553 C24.417855,21.8567322 24.7820631,23.8301998 26.1888188,24.8741971 L26.3494003,24.9862997 L26.0893082,25.0334145 C24.0168594,25.3647697 22.1433308,24.6026069 20.4688971,22.747133 C19.6752531,22.9125907 18.8488551,23 18,23 C15.8380227,23 13.8217216,22.4329875 12.1212175,21.4536177 C18.4754294,20.9333259 23.5,16.0335894 23.5,10 C23.5,7.53139489 22.6588941,5.25259513 21.2298282,3.38585212 C25.7287482,4.50218074 29,7.98501447 29,13 Z" id="Combined-Shape"></path>
                            <path d="M11,-1.95399252e-14 C17.0751322,-1.95399252e-14 22,4.4771525 22,10 C22,15.5228475 17.0751322,20 11,20 C10.1511449,20 9.32474694,19.9125907 8.53110289,19.747133 C6.78690109,21.6799183 4.82666755,22.4263851 2.65059972,21.9862997 C2.65059972,21.9862997 2.65059972,21.9862997 2.65059972,21.9862997 C4.18912393,20.9770546 4.61818945,18.9116795 3.60894437,17.3731553 C3.44760843,17.1272098 3.2544128,16.9037128 3.03439567,16.7084926 C1.01145216,14.9136229 0,12.677444 0,10 C0,3.84667316 4.92486775,-1.95399252e-14 11,-1.95399252e-14 Z" id="Path"></path>
                        </g>
                    </g>
                </g>
            </g>
        </g>
    </g>
</svg>