<?xml version="1.0" encoding="UTF-8"?>
<svg width="25px" height="25px" viewBox="0 0 25 25" version="1.1" xmlns="http://www.w3.org/2000/svg" xmlns:xlink="http://www.w3.org/1999/xlink">
    <!-- Generator: Sketch 61 (89581) - https://sketch.com -->
    <title>Icon</title>
    <desc>Created with Sketch.</desc>
    <g id="Telegram" stroke="none" stroke-width="1" fill="none" fill-rule="evenodd" fill-opacity="0.65">
        <g id="Telegram-Chats" transform="translate(-35.000000, -734.000000)" fill="#B4C2D3" fill-rule="nonzero">
            <g id="Tab-Bar" transform="translate(0.000000, 729.000000)">
                <g id="Tab-1">
                    <g id="Icon" transform="translate(35.000000, 5.000000)">
                        <path d="M12.5,0 C19.4036,0 25,5.59644 25,12.5 C25,19.4036 19.4036,25 12.5,25 C5.59644,25 0,19.4036 0,12.5 C0,5.59644 5.59644,0 12.5,0 Z M12.5,15.9999387 C9.71031,15.9999387 7.14295,16.5 5.10508,18.5507 C4.76252804,18.8954086 4.64484,19.4877 5.01712,19.8659 C6.92167,21.8005 9.57076,23 12.5,23 C15.4297,23 18.0791,21.8002 19.9839,19.8644 C20.3562,19.486 20.2382259,18.8937937 19.8953,18.549 C17.8574,16.5 15.2899,15.9999387 12.5,15.9999387 Z M12.5,5 C10.2909,5 8.5,6.79086 8.5,9 C8.5,11.2091 10.2909,13 12.5,13 C14.7091,13 16.5,11.2091 16.5,9 C16.5,6.79086 14.7091,5 12.5,5 Z"></path>
                    </g>
                </g>
            </g>
        </g>
    </g>
</svg>