<?xml version="1.0" encoding="UTF-8"?>
<svg width="19px" height="25px" viewBox="0 0 19 25" version="1.1" xmlns="http://www.w3.org/2000/svg" xmlns:xlink="http://www.w3.org/1999/xlink">
    <!-- Generator: Sketch 61 (89581) - https://sketch.com -->
    <title>Shape</title>
    <desc>Created with Sketch.</desc>
    <g id="Telegram" stroke="none" stroke-width="1" fill="none" fill-rule="evenodd">
        <g id="Telegram-Chat" transform="translate(-344.000000, -743.000000)" fill="#B4C2D3" fill-rule="nonzero">
            <g id="Send-Message" transform="translate(0.000000, 733.000000)">
                <g id="Record-Audio" transform="translate(344.250000, 10.000000)">
                    <path d="M17.75,11.25 C18.1642136,11.25 18.5,11.5857864 18.5,12 C18.5,16.6029131 14.7501869,20.3603317 10.0009218,20.7215571 L10,24 C10,24.4142136 9.66421356,24.75 9.25,24.75 C8.87030423,24.75 8.55650904,24.4678461 8.50684662,24.1017706 L8.5,24 L8.50007709,20.7216331 C3.7503389,20.3608586 0,16.6032358 0,12 C0,11.5857864 0.335786438,11.25 0.75,11.25 C1.16421356,11.25 1.5,11.5857864 1.5,12 C1.5,15.9935583 4.95996932,19.25 9.25,19.25 C13.5400307,19.25 17,15.9935583 17,12 C17,11.5857864 17.3357864,11.25 17.75,11.25 Z M9.25,0 C12.0114237,0 14.25,2.23857625 14.25,5 L14.25,12 C14.25,14.7614237 12.0114237,17 9.25,17 C6.48857625,17 4.25,14.7614237 4.25,12 L4.25,5 C4.25,2.23857625 6.48857625,0 9.25,0 Z M9.25,1.5 C7.31700338,1.5 5.75,3.06700338 5.75,5 L5.75,12 C5.75,13.9329966 7.31700338,15.5 9.25,15.5 C11.1829966,15.5 12.75,13.9329966 12.75,12 L12.75,5 C12.75,3.06700338 11.1829966,1.5 9.25,1.5 Z" id="Shape"></path>
                </g>
            </g>
        </g>
    </g>
</svg>