<svg width="17" height="10" viewBox="0 0 17 10" fill="none" xmlns="http://www.w3.org/2000/svg">
<path d="M8.1952 8.0428L15.2881 0.245335C15.5668 -0.0610751 16.0411 -0.0835208 16.3475 0.195201C16.6261 0.448584 16.67 0.863638 16.4662 1.16722L16.3977 1.25468L9.3048 9.05214C9.02608 9.35855 8.55174 9.38099 8.24533 9.10227C7.96678 8.84889 7.9229 8.43384 8.12663 8.13025L8.1952 8.0428L15.2881 0.245335L8.1952 8.0428ZM4.16285 7.46112L10.7266 0.245335C11.0053 -0.0610751 11.4797 -0.0835208 11.7861 0.195201C12.0646 0.448584 12.1085 0.863638 11.9048 1.16722L11.8362 1.25468L4.74334 9.05214C4.48145 9.34005 4.04911 9.37589 3.74522 9.15257L3.65821 9.0778L0.21967 5.63926C-0.0732233 5.34637 -0.0732233 4.87149 0.21967 4.5786C0.485936 4.31233 0.9026 4.28813 1.19621 4.50598L1.28033 4.5786L4.16285 7.46112L10.7266 0.245335L4.16285 7.46112Z" fill="#51A6F8"/>
</svg>
