<svg width="15" height="15" viewBox="0 0 15 15" fill="none" xmlns="http://www.w3.org/2000/svg">
<path d="M10.0815 2.0312C12.0492 3.99891 12.2142 7.08664 10.5766 9.24226L14.5199 13.1872C14.8128 13.4801 14.8128 13.9549 14.5199 14.2478C14.2514 14.5163 13.83 14.5387 13.5361 14.3149L13.4593 14.2478L9.51516 10.3039C7.35951 11.9422 4.27125 11.7773 2.3033 9.80938C0.155412 7.66149 0.155412 4.17908 2.3033 2.0312C4.45118 -0.116683 7.93359 -0.116683 10.0815 2.0312ZM9.37436 2.73831C7.617 0.980948 4.76776 0.980948 3.0104 2.73831C1.25304 4.49567 1.25304 7.34491 3.0104 9.10227C4.76776 10.8596 7.617 10.8596 9.37436 9.10227C11.1317 7.34491 11.1317 4.49567 9.37436 2.73831Z" fill="#B4C2D3"/>
</svg>
