<svg width="21" height="21" viewBox="0 0 21 21" fill="none" xmlns="http://www.w3.org/2000/svg">
<path d="M13.7527 3.13415C16.5542 5.93572 16.7892 10.3319 14.4577 13.401L20.072 19.0177C20.489 19.4347 20.489 20.1108 20.072 20.5278C19.6897 20.9101 19.0898 20.9419 18.6712 20.6234L18.5619 20.5278L12.9464 14.9126C9.87722 17.2451 5.48025 17.0104 2.67834 14.2085C-0.379758 11.1504 -0.379758 6.19224 2.67834 3.13415C5.73643 0.0760527 10.6946 0.0760527 13.7527 3.13415ZM12.7459 4.1409C10.2438 1.63883 6.18717 1.63883 3.68509 4.1409C1.18302 6.64298 1.18302 10.6996 3.68509 13.2017C6.18717 15.7038 10.2438 15.7038 12.7459 13.2017C15.248 10.6996 15.248 6.64298 12.7459 4.1409Z" fill="#51A6F8"/>
</svg>
