<?xml version="1.0" encoding="UTF-8"?>
<svg width="25px" height="25px" viewBox="0 0 25 25" version="1.1" xmlns="http://www.w3.org/2000/svg" xmlns:xlink="http://www.w3.org/1999/xlink">
    <!-- Generator: Sketch 61 (89581) - https://sketch.com -->
    <title>Shape</title>
    <desc>Created with Sketch.</desc>
    <g id="WhatsApp" stroke="none" stroke-width="1" fill="none" fill-rule="evenodd" fill-opacity="0.65">
        <g id="WhatsApp-Status" transform="translate(-325.000000, -735.000000)" fill="#B4C2D3" fill-rule="nonzero">
            <g id="Tab-Bar" transform="translate(0.000000, 729.000000)">
                <g id="Tab-5" transform="translate(300.000000, 0.000000)">
                    <g id="Icon" transform="translate(25.000000, 6.000000)">
                        <path d="M22.3819452,13.1998045 L18.0676617,13.1998045 C17.7687805,15.9552579 15.4348559,18.1 12.6,18.1 C11.8120541,18.1 11.0628081,17.9343063 10.3852041,17.6358613 L8.22807925,21.3731711 C9.54420822,22.0303078 11.028931,22.4 12.6,22.4 C17.8109788,22.4 22.0720279,18.3328675 22.3819452,13.1998045 Z M7.18906277,4.42793486 C4.54390382,6.18288022 2.8,9.18778483 2.8,12.6 C2.8,16.0122152 4.54390382,19.0171198 7.18906277,20.7720651 L9.34715942,17.0354347 C7.98448017,16.0343919 7.1,14.4204867 7.1,12.6 C7.1,10.7795133 7.98448017,9.16560809 9.34715942,8.16456533 L7.18906277,4.42793486 Z M12.6,8.3 C10.2251756,8.3 8.3,10.2251756 8.3,12.6 C8.3,14.9748244 10.2251756,16.9 12.6,16.9 C14.9748244,16.9 16.9,14.9748244 16.9,12.6 C16.9,10.2251756 14.9748244,8.3 12.6,8.3 Z M12.6,2.8 C11.028931,2.8 9.54420822,3.16969215 8.22807925,3.82682888 L10.3852041,7.56413872 C11.0628081,7.26569366 11.8120541,7.1 12.6,7.1 C15.4345129,7.1 17.7682157,9.24422314 18.0675531,11.9991951 L22.3818848,11.9991951 C22.0714743,6.86660413 17.8106403,2.8 12.6,2.8 Z M20.938,5.429 L21.0443585,5.55128343 C21.5426509,6.14670766 21.9787566,6.79602701 22.3430487,7.48902485 L22.431,7.663 L22.988521,7.47009 C23.3981766,7.30457839 23.8644424,7.5024964 24.029954,7.912152 C24.1773769,8.27703645 24.0371243,8.69314793 23.689858,8.903219 L23.587881,8.953589 L23.048,9.156 L23.0990638,9.30970707 C23.3290858,10.0430839 23.4841603,10.8104637 23.5553497,11.6021453 L23.569,11.799 L24.2,11.8 C24.6418278,11.8 25,12.1581722 25,12.6 C25,12.9935406 24.7140827,13.3268128 24.313409,13.3914991 L24.199957,13.4 L23.569,13.399 L23.5553172,13.5963968 C23.4792322,14.4459283 23.3062811,15.2680298 23.0477075,16.0512273 L23.044,16.054 L23.597452,16.259821 C24.0041566,16.4324569 24.1939069,16.9021054 24.021271,17.30881 C23.8675025,17.671066 23.474094,17.8661277 23.079997,17.769116 L22.972269,17.732624 L22.429,17.537 L22.3454798,17.7051407 C21.981323,18.3999803 21.5444864,19.0511214 21.0453747,19.6485143 L20.915,19.798 L21.350967,20.219596 C21.6633864,20.5320154 21.6633864,21.0385476 21.350967,21.350967 C21.0764027,21.6255313 20.645991,21.6621264 20.315883,21.432454 L20.219562,21.350933 L19.783,20.927 L19.6487166,21.0443585 C19.0532923,21.5426509 18.403973,21.9787566 17.7109751,22.3430487 L17.537,22.43 L17.72991,22.988521 C17.8954216,23.3981766 17.6975036,23.8644424 17.287848,24.029954 C16.9229635,24.1773769 16.5068521,24.0371243 16.296781,23.689858 L16.246411,23.587881 L16.065,23.04 L15.8901779,23.0990998 C15.1565676,23.329186 14.3889341,23.4842774 13.5969868,23.5554277 L13.399,23.569 L13.4,24.2 C13.4,24.6418278 13.0418278,25 12.6,25 C12.2064594,25 11.8731872,24.7140827 11.8085009,24.313409 L11.8,24.199957 L11.8,23.569 L11.6034063,23.5552753 C10.8137283,23.4845089 10.0482139,23.3301925 9.31563694,23.1013152 L9.157,23.048 L8.940179,23.597452 C8.76754313,24.0041566 8.29789463,24.1939069 7.89119,24.021271 C7.52893401,23.8675025 7.3338723,23.474094 7.430884,23.079997 L7.467376,22.972269 L7.678,22.437 L7.49485929,22.3454798 C6.80001968,21.981323 6.14887855,21.5444864 5.55148571,21.0453747 L5.408,20.921 L4.980404,21.350967 C4.66798457,21.6633864 4.16145243,21.6633864 3.849033,21.350967 C3.57446872,21.0764027 3.53787358,20.645991 3.767546,20.315883 L3.849067,20.219562 L4.278,19.789 L4.15502707,19.6479812 C3.65555676,19.0510423 3.21858315,18.3999478 2.85380647,17.7049879 L2.765,17.528 L2.227718,17.732629 C1.82101337,17.9052649 1.35136487,17.7155146 1.178729,17.30881 C1.02496045,16.946554 1.15792881,16.5280587 1.501476,16.311959 L1.602603,16.259798 L2.154,16.05 L2.09855453,15.8829331 C1.86969059,15.1512531 1.71534772,14.3856667 1.64447356,13.5958908 L1.63,13.399 L1,13.4 C0.5581722,13.4 0.2,13.0418278 0.2,12.6 C0.2,12.2064594 0.485917263,11.8731872 0.886591,11.8085009 L1.000047,11.8 L1.631,11.8 L1.61718709,12.0002414 C1.66622867,11.0698176 1.83167449,10.1703104 2.09868643,9.31563699 L2.153,9.15 L1.602548,8.940179 C1.19584337,8.76754313 1.00609313,8.29789463 1.178729,7.89119 C1.33249755,7.52893401 1.72590595,7.3338723 2.120003,7.430884 L2.227731,7.467376 L2.765,7.671 L2.85452018,7.49485929 C3.21867703,6.80001968 3.65551365,6.14887855 4.15462526,5.55148571 L4.284,5.402 L3.849033,4.980404 C3.53661357,4.66798457 3.53661357,4.16145243 3.849033,3.849033 C4.12359728,3.57446872 4.55400902,3.53787358 4.884117,3.767546 L4.980438,3.849067 L5.416,4.272 L5.55128343,4.15564149 C6.14670766,3.65734906 6.79602701,3.22124337 7.48902485,2.85695134 L7.658,2.771 L7.47009,2.211479 C7.30457839,1.8018234 7.5024964,1.33555761 7.912152,1.170046 C8.27703645,1.02262311 8.69314793,1.16287567 8.903219,1.510142 L8.953589,1.612119 L9.129,2.16 L9.30970707,2.1009362 C10.0430839,1.87091424 10.8104637,1.71583965 11.6021453,1.64465029 L11.8,1.63 L11.8,1 C11.8,0.5581722 12.1581722,0.2 12.6,0.2 C12.9935406,0.2 13.3268128,0.485917263 13.3914991,0.886591 L13.4,1.000047 L13.393,1.631 L13.5963813,1.64524657 C14.385763,1.71546003 15.1514509,1.86971977 15.8842499,2.09865059 L16.039,2.15 L16.259821,1.602548 C16.4324569,1.19584337 16.9021054,1.00609313 17.30881,1.178729 C17.671066,1.33249755 17.8661277,1.72590595 17.769116,2.120003 L17.732624,2.227731 L17.523,2.763 L17.7051407,2.85452018 C18.3999803,3.21867703 19.0511214,3.65551365 19.6485143,4.15462526 L19.788,4.276 L20.319596,3.949033 C20.6320154,3.63661357 21.1385476,3.63661357 21.450967,3.949033 C21.7255313,4.22359728 21.7621264,4.65400902 21.532454,4.984117 L21.450933,5.080438 L20.938,5.429 L21.0443585,5.55128343 L20.938,5.429 Z" id="Shape"></path>
                    </g>
                </g>
            </g>
        </g>
    </g>
</svg>